# xmcd CD database file
#
# Track frame offsets:
#	150
#	27347
#	48900
#	79723
#	102455
#	135262
#	159052
#	193389
#	230210
#	259945
#	306379
#
# Disc length: 4389 seconds
#
# Revision: 0
# Processed by: cddbd v1.5.2PL0 Copyright (c) Steve Scherf et al.
# Submitted via: CDex 1.70beta2
#
DISCID=9111230b
DTITLE=Various Artist - 1997-2007
DYEAR=1900
DGENRE=Jazz
TTITLE0=Itsuki no Komoriuta
TTITLE1=Kappa
TTITLE2=The Sun was Yellow
TTITLE3=White and Blue 1
TTITLE4=Junction
TTITLE5=Cirrus
TTITLE6=Hada Hada
TTITLE7=Flying to the South
TTITLE8=Morning Mist
TTITLE9=Scramble
TTITLE10=Untitled
EXTD=
EXTT0=
EXTT1=
EXTT2=
EXTT3=
EXTT4=
EXTT5=
EXTT6=
EXTT7=
EXTT8=
EXTT9=
EXTT10=
PLAYORDER=
